<?xml version="1.0" encoding="UTF-8"?>
<!DOCTYPE svg PUBLIC "-//W3C//DTD SVG 1.1//EN" "http://www.w3.org/Graphics/SVG/1.1/DTD/svg11.dtd">
<svg xmlns="http://www.w3.org/2000/svg" version="1.1" width="512px" height="436px" style="shape-rendering:geometricPrecision; text-rendering:geometricPrecision; image-rendering:optimizeQuality; fill-rule:evenodd; clip-rule:evenodd" xmlns:xlink="http://www.w3.org/1999/xlink">
<g><path style="opacity:1" fill="#e7e7e7" d="M 511.5,230.5 C 511.5,232.833 511.5,235.167 511.5,237.5C 498.854,218.338 485.187,199.838 470.5,182C 475.511,174.402 476.677,166.235 474,157.5C 465.709,135.542 450.876,119.709 429.5,110C 410.554,91.0541 391.554,72.0541 372.5,53C 354.277,38.0557 333.943,27.0557 311.5,20C 273.864,7.09996 235.864,6.09996 197.5,17C 149.697,31.5753 110.364,58.5753 79.5,98C 66.2764,104.879 54.443,113.713 44,124.5C 31.2274,139.152 25.8941,156.152 28,175.5C 18.2418,190.407 8.74184,205.407 -0.5,220.5C -0.5,217.833 -0.5,215.167 -0.5,212.5C 7.40806,199.407 15.5747,186.407 24,173.5C 22.2652,156.101 26.5985,140.434 37,126.5C 48.1404,112.689 61.6404,101.856 77.5,94C 86.767,82.7302 96.767,72.0635 107.5,62C 165.791,11.4279 232.458,-4.57208 307.5,14C 316.213,18.1937 325.213,21.527 334.5,24C 349.35,30.918 363.017,39.5847 375.5,50C 394.528,69.3621 413.862,88.3621 433.5,107C 453.115,116.615 467.282,131.449 476,151.5C 480.404,161.273 480.571,171.106 476.5,181C 488.404,197.392 500.07,213.892 511.5,230.5 Z"/></g>
<g><path style="opacity:1" fill="#757575" d="M 511.5,253.5 C 511.5,314.167 511.5,374.833 511.5,435.5C 500.5,435.5 489.5,435.5 478.5,435.5C 474.165,422.327 470.332,408.994 467,395.5C 459.93,372.758 448.93,352.091 434,333.5C 399.815,294.156 358.315,265.323 309.5,247C 304.771,246.004 300.271,246.504 296,248.5C 295.817,251.365 295.317,254.031 294.5,256.5C 296.014,247.249 294.18,245.915 289,252.5C 281.749,273.582 274.082,294.582 266,315.5C 259.127,331.409 249.627,345.576 237.5,358C 226.49,366.307 215.156,366.641 203.5,359C 199.667,355.167 195.833,351.333 192,347.5C 176.042,319.217 162.376,289.883 151,259.5C 149.51,258.272 148.01,258.272 146.5,259.5C 146.5,258.5 146.5,257.5 146.5,256.5C 135.669,255.626 125.336,257.459 115.5,262C 68.2744,281.417 29.6077,311.584 -0.5,352.5C -0.5,313.5 -0.5,274.5 -0.5,235.5C 9.87634,217.763 20.543,200.097 31.5,182.5C 35.2722,185.232 38.9389,188.065 42.5,191C 49.587,193.312 55.9204,191.979 61.5,187C 66.027,182.473 70.527,177.973 75,173.5C 76.9545,170.281 78.2879,166.947 79,163.5C 70.3494,168.582 62.5161,174.748 55.5,182C 47.7863,186.402 41.953,184.568 38,176.5C 34.17,164.799 35.17,153.466 41,142.5C 51.8601,125.321 66.3601,112.154 84.5,103C 127.128,49.2717 182.794,20.4383 251.5,16.5C 274.645,17.5918 297.312,21.4251 319.5,28C 339.45,37.9528 357.783,50.2861 374.5,65C 390.608,82.1054 406.941,98.7721 423.5,115C 444.173,124.338 458.673,139.505 467,160.5C 468.692,167.807 467.192,174.307 462.5,180C 460.067,182.133 457.233,183.3 454,183.5C 447.14,180.984 440.473,177.984 434,174.5C 437.961,187.383 446.794,192.55 460.5,190C 462.402,188.699 464.402,188.032 466.5,188C 483.375,208.68 498.375,230.513 511.5,253.5 Z"/></g>
<g><path style="opacity:1" fill="#3e3e3e" d="M 511.5,237.5 C 511.5,242.833 511.5,248.167 511.5,253.5C 498.375,230.513 483.375,208.68 466.5,188C 464.402,188.032 462.402,188.699 460.5,190C 446.794,192.55 437.961,187.383 434,174.5C 440.473,177.984 447.14,180.984 454,183.5C 457.233,183.3 460.067,182.133 462.5,180C 467.192,174.307 468.692,167.807 467,160.5C 458.673,139.505 444.173,124.338 423.5,115C 406.941,98.7721 390.608,82.1054 374.5,65C 357.783,50.2861 339.45,37.9528 319.5,28C 297.312,21.4251 274.645,17.5918 251.5,16.5C 182.794,20.4383 127.128,49.2717 84.5,103C 66.3601,112.154 51.8601,125.321 41,142.5C 35.17,153.466 34.17,164.799 38,176.5C 41.953,184.568 47.7863,186.402 55.5,182C 62.5161,174.748 70.3494,168.582 79,163.5C 78.2879,166.947 76.9545,170.281 75,173.5C 70.527,177.973 66.027,182.473 61.5,187C 55.9204,191.979 49.587,193.312 42.5,191C 38.9389,188.065 35.2722,185.232 31.5,182.5C 20.543,200.097 9.87634,217.763 -0.5,235.5C -0.5,230.5 -0.5,225.5 -0.5,220.5C 8.74184,205.407 18.2418,190.407 28,175.5C 25.8941,156.152 31.2274,139.152 44,124.5C 54.443,113.713 66.2764,104.879 79.5,98C 110.364,58.5753 149.697,31.5753 197.5,17C 235.864,6.09996 273.864,7.09996 311.5,20C 333.943,27.0557 354.277,38.0557 372.5,53C 391.554,72.0541 410.554,91.0541 429.5,110C 450.876,119.709 465.709,135.542 474,157.5C 476.677,166.235 475.511,174.402 470.5,182C 485.187,199.838 498.854,218.338 511.5,237.5 Z"/></g>
<g><path style="opacity:1" fill="#3d3c3d" d="M 76.5,136.5 C 77.2389,136.369 77.9056,136.536 78.5,137C 71.2599,147.577 63.2599,157.577 54.5,167C 53.552,167.483 52.552,167.649 51.5,167.5C 55.0563,153.281 63.3897,142.947 76.5,136.5 Z"/></g>
<g><path style="opacity:1" fill="#3d3d3d" d="M 417.5,140.5 C 429.317,143.809 438.817,150.476 446,160.5C 447.707,162.909 448.54,165.575 448.5,168.5C 445.774,168.736 443.441,167.903 441.5,166C 432.935,157.938 424.935,149.438 417.5,140.5 Z"/></g>
<g><path style="opacity:1" fill="#393939" d="M 271.5,154.5 C 285.342,153.339 294.509,159.339 299,172.5C 301.243,180.666 300.91,188.666 298,196.5C 292.577,202.434 286.077,203.934 278.5,201C 269.427,198.261 263.26,192.427 260,183.5C 258.645,177.215 258.311,170.882 259,164.5C 259.956,163.421 260.789,162.255 261.5,161C 265.029,158.94 268.363,156.773 271.5,154.5 Z"/></g>
<g><path style="opacity:1" fill="#393939" d="M 137.5,155.5 C 149.217,153.987 157.051,158.653 161,169.5C 163.956,191.635 154.456,203.968 132.5,206.5C 125.47,205.972 120.97,202.305 119,195.5C 115.207,177.426 121.373,164.093 137.5,155.5 Z"/></g>
<g><path style="opacity:1" fill="#a7a7a7" d="M 478.5,435.5 C 318.833,435.5 159.167,435.5 -0.5,435.5C -0.5,408.833 -0.5,382.167 -0.5,355.5C 1.12071,355.213 2.12071,354.213 2.5,352.5C 6.7828,351.508 11.1161,351.174 15.5,351.5C 15.5,347.5 15.5,343.5 15.5,339.5C 16.8333,339.5 18.1667,339.5 19.5,339.5C 19.2267,337.549 19.8934,336.049 21.5,335C 21.1667,334.667 20.8333,334.333 20.5,334C 24.348,331.353 26.6814,327.853 27.5,323.5C 33.3571,324.166 39.1904,323.832 45,322.5C 46.5244,324.271 48.0244,325.938 49.5,327.5C 60.3578,355.691 79.6912,375.691 107.5,387.5C 108.696,387.154 108.696,386.654 107.5,386C 89.7128,374.022 73.8794,359.855 60,343.5C 56.57,338.304 53.4034,332.971 50.5,327.5C 50.6107,326.883 50.944,326.383 51.5,326C 46.3335,320.072 46.3335,314.238 51.5,308.5C 55.4454,307.509 59.4454,307.176 63.5,307.5C 64.0128,302.915 63.3462,298.582 61.5,294.5C 62.2624,294.089 63.2624,293.923 64.5,294C 64.0426,293.586 63.7093,293.086 63.5,292.5C 65.9607,290.26 68.6274,289.927 71.5,291.5C 71.0769,288.712 72.0769,286.712 74.5,285.5C 83.3289,287.106 92.3289,288.106 101.5,288.5C 101.023,289.478 100.357,290.311 99.5,291C 101.775,291.405 103.775,290.905 105.5,289.5C 119.205,283.989 133.372,279.989 148,277.5C 150.327,277.822 151.494,279.156 151.5,281.5C 151.5,282.5 151.5,283.5 151.5,284.5C 143.775,286.029 136.775,289.195 130.5,294C 121.554,300.586 114.221,308.586 108.5,318C 110.631,317.602 112.631,316.602 114.5,315C 125.427,304.54 137.427,295.54 150.5,288C 151.793,287.51 153.127,287.343 154.5,287.5C 155.013,290.209 156.013,292.709 157.5,295C 148.643,300.858 141.476,308.358 136,317.5C 135.251,318.635 135.417,319.635 136.5,320.5C 144.478,314.356 152.311,308.023 160,301.5C 167.552,318.271 175.885,334.604 185,350.5C 189.757,357.8 195.923,363.633 203.5,368C 205.436,368.813 207.436,369.313 209.5,369.5C 207.253,378.682 208.42,387.349 213,395.5C 219.411,400.145 224.411,398.812 228,391.5C 228.481,384.759 227.981,378.093 226.5,371.5C 237.815,367.913 246.982,361.246 254,351.5C 267.412,331.676 277.912,310.342 285.5,287.5C 290.291,292.792 295.291,297.959 300.5,303C 301.966,303.635 303.3,304.469 304.5,305.5C 304.833,305 305.167,304.5 305.5,304C 300.804,296.296 294.971,289.463 288,283.5C 287.192,281.421 287.359,279.421 288.5,277.5C 299.126,282.813 309.459,288.646 319.5,295C 321.65,296.59 323.983,297.257 326.5,297C 317.174,286.339 305.84,278.672 292.5,274C 290.963,272.89 290.297,271.39 290.5,269.5C 296.257,269.682 301.924,270.515 307.5,272C 315.273,275.053 322.94,278.386 330.5,282C 332.259,282.798 333.926,282.631 335.5,281.5C 331.794,276.967 327.127,273.801 321.5,272C 312.097,268.686 302.431,266.853 292.5,266.5C 292.959,263.123 293.626,259.789 294.5,256.5C 295.317,254.031 295.817,251.365 296,248.5C 300.271,246.504 304.771,246.004 309.5,247C 358.315,265.323 399.815,294.156 434,333.5C 448.93,352.091 459.93,372.758 467,395.5C 470.332,408.994 474.165,422.327 478.5,435.5 Z"/></g>
<g><path style="opacity:1" fill="#a1a1a1" d="M 146.5,259.5 C 146.423,263.963 147.09,268.296 148.5,272.5C 131.725,273.09 116.725,278.423 103.5,288.5C 103.957,289.298 104.624,289.631 105.5,289.5C 103.775,290.905 101.775,291.405 99.5,291C 100.357,290.311 101.023,289.478 101.5,288.5C 92.3289,288.106 83.3289,287.106 74.5,285.5C 72.0769,286.712 71.0769,288.712 71.5,291.5C 68.6274,289.927 65.9607,290.26 63.5,292.5C 63.7093,293.086 64.0426,293.586 64.5,294C 63.2624,293.923 62.2624,294.089 61.5,294.5C 63.3462,298.582 64.0128,302.915 63.5,307.5C 59.4454,307.176 55.4454,307.509 51.5,308.5C 46.3335,314.238 46.3335,320.072 51.5,326C 50.944,326.383 50.6107,326.883 50.5,327.5C 50.1667,327.5 49.8333,327.5 49.5,327.5C 48.0244,325.938 46.5244,324.271 45,322.5C 39.1904,323.832 33.3571,324.166 27.5,323.5C 26.6814,327.853 24.348,331.353 20.5,334C 20.8333,334.333 21.1667,334.667 21.5,335C 19.8934,336.049 19.2267,337.549 19.5,339.5C 18.1667,339.5 16.8333,339.5 15.5,339.5C 15.5,343.5 15.5,347.5 15.5,351.5C 11.1161,351.174 6.7828,351.508 2.5,352.5C 2.12071,354.213 1.12071,355.213 -0.5,355.5C -0.5,354.5 -0.5,353.5 -0.5,352.5C 29.6077,311.584 68.2744,281.417 115.5,262C 125.336,257.459 135.669,255.626 146.5,256.5C 146.5,257.5 146.5,258.5 146.5,259.5 Z"/></g>
<g><path style="opacity:1" fill="#4a4a4a" d="M 151.5,281.5 C 152.158,283.639 153.158,285.639 154.5,287.5C 153.127,287.343 151.793,287.51 150.5,288C 137.427,295.54 125.427,304.54 114.5,315C 112.631,316.602 110.631,317.602 108.5,318C 114.221,308.586 121.554,300.586 130.5,294C 136.775,289.195 143.775,286.029 151.5,284.5C 151.5,283.5 151.5,282.5 151.5,281.5 Z"/></g>
<g><path style="opacity:1" fill="#3e3e3e" d="M 294.5,256.5 C 293.626,259.789 292.959,263.123 292.5,266.5C 302.431,266.853 312.097,268.686 321.5,272C 327.127,273.801 331.794,276.967 335.5,281.5C 333.926,282.631 332.259,282.798 330.5,282C 322.94,278.386 315.273,275.053 307.5,272C 301.924,270.515 296.257,269.682 290.5,269.5C 290.297,271.39 290.963,272.89 292.5,274C 305.84,278.672 317.174,286.339 326.5,297C 323.983,297.257 321.65,296.59 319.5,295C 309.459,288.646 299.126,282.813 288.5,277.5C 287.359,279.421 287.192,281.421 288,283.5C 294.971,289.463 300.804,296.296 305.5,304C 305.167,304.5 304.833,305 304.5,305.5C 303.3,304.469 301.966,303.635 300.5,303C 295.291,297.959 290.291,292.792 285.5,287.5C 277.912,310.342 267.412,331.676 254,351.5C 246.982,361.246 237.815,367.913 226.5,371.5C 227.981,378.093 228.481,384.759 228,391.5C 224.411,398.812 219.411,400.145 213,395.5C 208.42,387.349 207.253,378.682 209.5,369.5C 207.436,369.313 205.436,368.813 203.5,368C 195.923,363.633 189.757,357.8 185,350.5C 175.885,334.604 167.552,318.271 160,301.5C 152.311,308.023 144.478,314.356 136.5,320.5C 135.417,319.635 135.251,318.635 136,317.5C 141.476,308.358 148.643,300.858 157.5,295C 156.013,292.709 155.013,290.209 154.5,287.5C 153.158,285.639 152.158,283.639 151.5,281.5C 151.494,279.156 150.327,277.822 148,277.5C 133.372,279.989 119.205,283.989 105.5,289.5C 104.624,289.631 103.957,289.298 103.5,288.5C 116.725,278.423 131.725,273.09 148.5,272.5C 147.09,268.296 146.423,263.963 146.5,259.5C 148.01,258.272 149.51,258.272 151,259.5C 162.376,289.883 176.042,319.217 192,347.5C 195.833,351.333 199.667,355.167 203.5,359C 215.156,366.641 226.49,366.307 237.5,358C 249.627,345.576 259.127,331.409 266,315.5C 274.082,294.582 281.749,273.582 289,252.5C 294.18,245.915 296.014,247.249 294.5,256.5 Z"/></g>
<g><path style="opacity:1" fill="#474747" d="M 169.5,290.5 C 174.747,290.64 175.747,292.806 172.5,297C 171.216,297.684 170.049,297.517 169,296.5C 168.322,294.402 168.489,292.402 169.5,290.5 Z"/></g>
<g><path style="opacity:1" fill="#4c4c4c" d="M 170.5,276.5 C 175.161,275.832 177.161,277.832 176.5,282.5C 171.839,283.168 169.839,281.168 170.5,276.5 Z"/></g>
<g><path style="opacity:1" fill="#474747" d="M 270.5,272.5 C 274.976,272.8 276.31,274.967 274.5,279C 269.791,279.082 268.458,276.915 270.5,272.5 Z"/></g>
<g><path style="opacity:1" fill="#454545" d="M 160.5,260.5 C 165.328,260.385 166.661,262.552 164.5,267C 163.216,267.684 162.049,267.517 161,266.5C 160.505,264.527 160.338,262.527 160.5,260.5 Z"/></g>
<g><path style="opacity:1" fill="#404040" d="M 340.5,315.5 C 341.239,315.369 341.906,315.536 342.5,316C 322.656,340.758 296.99,355.425 265.5,360C 292.979,348.951 317.979,334.118 340.5,315.5 Z"/></g>
<g><path style="opacity:1" fill="#434343" d="M 118.5,340.5 C 118.56,339.957 118.893,339.624 119.5,339.5C 127.672,343.616 136.005,347.449 144.5,351C 158.576,355.803 172.576,360.803 186.5,366C 175.41,366.564 164.743,364.564 154.5,360C 141.706,354.773 129.706,348.273 118.5,340.5 Z"/></g>
<g><path style="opacity:1" fill="#444444" d="M 49.5,327.5 C 49.8333,327.5 50.1667,327.5 50.5,327.5C 53.4034,332.971 56.57,338.304 60,343.5C 73.8794,359.855 89.7128,374.022 107.5,386C 108.696,386.654 108.696,387.154 107.5,387.5C 79.6912,375.691 60.3578,355.691 49.5,327.5 Z"/></g>
<g><path style="opacity:1" fill="#424242" d="M 410.5,327.5 C 411.525,327.897 411.692,328.563 411,329.5C 388.123,356.853 359.29,374.353 324.5,382C 338.602,375.91 352.269,368.91 365.5,361C 377.556,351.944 389.89,343.278 402.5,335C 405.666,333 408.332,330.5 410.5,327.5 Z"/></g>
</svg>
